HIERARCHY
ROOT Hips
{
    OFFSET 0.000000 0.000000 0.000000
    CHANNELS 6 Xposition Yposition Zposition Zrotation Xrotation Yrotation
    JOINT Spine
    {
        OFFSET -0.000000 14.517291 0.000000
        CHANNELS 3 Zrotation Xrotation Yrotation
        JOINT Spine1
        {
            OFFSET -0.000000 37.558300 0.000000
            CHANNELS 3 Zrotation Xrotation Yrotation
            JOINT Neck
            {
                OFFSET -0.000000 37.404057 3.400369
                CHANNELS 3 Zrotation Xrotation Yrotation
                JOINT Head
                {
                    OFFSET -0.000000 24.785618 -3.540803
                    CHANNELS 3 Zrotation Xrotation Yrotation
                    End Site
                    {
                        OFFSET -0.000000 35.408028 0.000000
                    }
                }
            }
            JOINT LeftShoulder
            {
                OFFSET 6.992933 33.973492 -0.192664
                CHANNELS 3 Zrotation Xrotation Yrotation
                JOINT LeftArm
                {
                    OFFSET 21.527611 0.000000 0.000000
                    CHANNELS 3 Zrotation Xrotation Yrotation
                    JOINT LeftForeArm
                    {
                        OFFSET 56.353916 0.000000 0.000000
                        CHANNELS 3 Zrotation Xrotation Yrotation
                        JOINT LeftHand
                        {
                            OFFSET 47.774071 0.000000 0.000000
                            CHANNELS 3 Zrotation Xrotation Yrotation
                            End Site
                            {
                                OFFSET 26.556021 0.000000 0.000000
                            }
                        }
                    }
                }
            }
            JOINT RightShoulder
            {
                OFFSET -7.065357 33.973492 -0.192664
                CHANNELS 3 Zrotation Xrotation Yrotation
                JOINT RightArm
                {
                    OFFSET -21.527611 0.000000 0.000000
                    CHANNELS 3 Zrotation Xrotation Yrotation
                    JOINT RightForeArm
                    {
                        OFFSET -56.353916 0.000000 0.000000
                        CHANNELS 3 Zrotation Xrotation Yrotation
                        JOINT RightHand
                        {
                            OFFSET -47.774071 0.000000 0.000000
                            CHANNELS 3 Zrotation Xrotation Yrotation
                            End Site
                            {
                                OFFSET -26.556021 0.000000 0.000000
                            }
                        }
                    }
                }
            }
        }
    }
    JOINT LeftUpLeg
    {
        OFFSET 17.704014 0.000000 0.000000
        CHANNELS 3 Zrotation Xrotation Yrotation
        JOINT LeftLeg
        {
            OFFSET -0.000000 -81.181816 0.000000
            CHANNELS 3 Zrotation Xrotation Yrotation
            JOINT LeftFoot
            {
                OFFSET -0.000000 -62.821102 0.000000
                CHANNELS 3 Zrotation Xrotation Yrotation
                JOINT LeftToeBase
                {
                    OFFSET -0.000000 -11.507608 26.556021
                    CHANNELS 3 Zrotation Xrotation Yrotation
                    End Site
                    {
                        OFFSET -0.000000 0.000000 7.081605
                    }
                }
            }
        }
    }
    JOINT RightUpLeg
    {
        OFFSET -17.704014 0.000000 0.000000
        CHANNELS 3 Zrotation Xrotation Yrotation
        JOINT RightLeg
        {
            OFFSET -0.000000 -81.181816 0.000000
            CHANNELS 3 Zrotation Xrotation Yrotation
            JOINT RightFoot
            {
                OFFSET -0.000000 -62.821102 0.000000
                CHANNELS 3 Zrotation Xrotation Yrotation
                JOINT RightToeBase
                {
                    OFFSET -0.000000 -11.507608 26.556021
                    CHANNELS 3 Zrotation Xrotation Yrotation
                    End Site
                    {
                        OFFSET -0.000000 0.000000 7.081605
                    }
                }
            }
        }
    }
}
MOTION
Frames:    9
Frame Time:    0.008333
28.667789    148.923462    -90.792862    0.066917    1.419481    34.803459    1.111483    -0.484449    -2.657595    -10.700104    1.692616    -0.728567    6.013338    -0.224995    -16.430691    10.823756    1.102725    -16.623373    5.804540    9.513306    -18.470310    -35.571930    20.734436    -48.314041    -7.439591    -7.757161    -116.227249    2.320873    -19.548027    -6.782773    -18.138197    -7.039319    -6.312687    19.869040    -26.400316    54.678230    -14.619508    -16.105692    44.265358    -2.085634    -10.883425    32.673229    32.834801    -3.280745    -7.402681    -8.871863    19.320448    -16.926804    -28.431644    -16.314383    45.754963    0.000000    0.000000    0.000000    -20.445215    -29.258228    -5.543456    21.612148    49.488495    -18.150366    3.193664    -16.087332    -8.162745    0.000000    0.000000    0.000000    
27.714405    149.321609    -90.244804    0.117977    1.599357    35.108650    0.979720    -0.463458    -2.774625    -10.720899    1.624967    -0.773284    5.976150    -0.257676    -16.447294    10.858105    1.078725    -16.630222    5.793431    9.566468    -18.528904    -35.663467    20.767780    -48.289299    -7.381094    -7.884559    -116.272247    2.304535    -19.586548    -6.707954    -18.067524    -7.042166    -6.376819    19.917555    -26.448612    54.676327    -14.474290    -15.977383    44.566280    -2.152649    -10.786052    32.642326    32.878639    -3.523296    -7.544549    -8.603453    18.621210    -16.919006    -29.381826    -15.035697    46.464836    0.000000    0.000000    0.000000    -20.191463    -29.187029    -5.495722    21.663952    49.204090    -18.346128    2.935202    -16.027634    -8.281971    0.000000    0.000000    0.000000    
26.803070    149.760925    -89.757278    0.193500    1.800656    35.438873    0.909979    -0.406225    -2.931362    -10.811945    1.542565    -0.831771    5.876416    -0.337268    -16.533237    10.916954    1.115485    -16.705198    5.755007    9.572495    -18.505150    -35.729866    20.828964    -48.284439    -7.348637    -7.970571    -116.320381    2.258195    -19.627848    -6.780875    -18.097593    -7.092282    -6.441193    19.971664    -26.386473    54.620930    -14.428284    -15.945692    44.854111    -2.149078    -10.727761    32.556828    32.816246    -3.787871    -7.691797    -8.293083    17.954914    -16.970901    -29.792379    -13.336479    47.030632    0.000000    0.000000    0.000000    -20.007069    -29.091475    -5.470370    21.695210    48.849785    -18.464361    2.635592    -15.884959    -8.487906    0.000000    0.000000    0.000000    
25.882673    150.212891    -89.275856    0.260125    2.044953    35.749264    0.764437    -0.406170    -3.061818    -10.875431    1.472502    -0.880829    5.927927    -0.332313    -16.568378    10.875317    1.007936    -16.744785    5.788626    9.632077    -18.550604    -35.764568    20.903231    -48.330929    -7.244833    -8.210130    -116.360977    2.191629    -19.699770    -6.712734    -18.005056    -7.073255    -6.502686    19.987200    -26.454300    54.607647    -14.246710    -15.856367    45.148090    -2.198677    -10.682974    32.538422    32.719830    -4.060022    -7.806606    -8.008909    17.269768    -16.912846    -29.989395    -11.673610    47.549011    0.000000    0.000000    0.000000    -19.773649    -29.090796    -5.432707    21.535305    48.572269    -18.564861    2.462977    -15.669679    -8.605563    0.000000    0.000000    0.000000    
24.998972    150.687302    -88.806366    0.375271    2.253742    36.067081    0.592100    -0.347514    -3.207393    -10.897560    1.380833    -0.937462    5.931818    -0.365166    -16.596272    10.838692    1.007765    -16.781046    5.813062    9.681108    -18.613073    -35.848961    20.940590    -48.328327    -7.174929    -8.373559    -116.397980    2.190244    -19.755697    -6.721946    -18.013336    -7.065481    -6.510603    20.058453    -26.520124    54.525341    -13.998011    -15.784756    45.454411    -2.139132    -10.652356    32.521130    32.528149    -4.292192    -7.888309    -7.642719    16.608999    -16.940617    -30.152071    -10.090668    48.060501    0.000000    0.000000    0.000000    -19.603600    -28.986469    -5.395367    21.619389    48.148212    -18.844839    2.024764    -15.423781    -8.929856    0.000000    0.000000    0.000000    
24.131485    151.172043    -88.366394    0.463874    2.483563    36.373093    0.448432    -0.324063    -3.355059    -10.922269    1.326068    -0.991397    5.811338    -0.391587    -16.652502    10.975243    0.988305    -16.803452    5.815752    9.673159    -18.670937    -35.879658    21.035923    -48.342648    -7.178803    -8.581042    -116.375694    2.144518    -19.954161    -6.862279    -17.967907    -7.108884    -6.580418    19.981459    -26.461502    54.490311    -13.970479    -15.559881    45.638618    -2.465064    -10.497322    32.333317    32.308598    -4.525360    -7.955919    -7.270932    15.940676    -17.043638    -30.068022    -8.442472    48.500919    0.000000    0.000000    0.000000    -19.437689    -28.878408    -5.336438    21.545582    47.684414    -18.896408    1.779639    -15.175781    -9.119036    0.000000    0.000000    0.000000    
23.285645    151.649994    -87.939362    0.533153    2.696446    36.687130    0.305365    -0.302431    -3.522055    -10.938184    1.245522    -1.054365    5.875720    -0.382838    -16.654747    10.901206    0.918773    -16.818167    5.867904    9.722840    -18.735289    -35.942474    21.027536    -48.369766    -7.141158    -8.697686    -116.390938    2.153152    -20.009916    -6.799214    -17.929541    -7.113139    -6.617950    20.032862    -26.472418    54.483498    -13.774263    -15.505667    45.860844    -2.395536    -10.473683    32.339478    32.083443    -4.780272    -7.999960    -6.910679    15.385332    -17.255386    -29.670889    -6.732643    48.693199    0.000000    0.000000    0.000000    -19.224632    -28.772038    -5.298803    21.363150    47.219372    -18.884764    1.483769    -14.899515    -9.318280    0.000000    0.000000    0.000000    
22.464775    152.108551    -87.520370    0.596476    2.867561    36.972900    0.206179    -0.267451    -3.672363    -10.937767    1.203235    -1.108385    5.804498    -0.386133    -16.696072    10.979099    0.878832    -16.836830    5.859907    9.729943    -18.767998    -35.884705    21.109873    -48.424156    -7.057312    -8.942024    -116.408730    2.147288    -20.117096    -6.809907    -17.937908    -7.153846    -6.663913    20.029957    -26.426502    54.443542    -13.655821    -15.407560    46.048664    -2.425356    -10.405239    32.303219    31.856522    -4.993409    -8.098607    -6.619445    14.898498    -17.403109    -28.986607    -5.083299    48.798553    0.000000    0.000000    0.000000    -18.990385    -28.630575    -5.195660    21.240286    46.733753    -18.873379    1.257812    -14.654537    -9.537953    0.000000    0.000000    0.000000    
21.658957    152.547226    -87.141754    0.622234    3.010803    37.225716    0.156637    -0.219936    -3.808705    -10.929317    1.156357    -1.158300    5.822371    -0.417141    -16.688841    10.912899    0.820982    -16.836695    5.862868    9.706554    -18.820782    -35.938908    21.067131    -48.415642    -7.052690    -8.942394    -116.391594    2.166944    -20.108648    -6.847485    -17.894518    -7.146384    -6.677583    19.947731    -26.429415    54.395519    -13.592978    -15.318503    46.188599    -2.474672    -10.335350    32.286873    31.667860    -5.244633    -8.176418    -6.426967    14.641092    -17.580156    -27.976809    -3.540667    48.628231    0.000000    0.000000    0.000000    -18.695520    -28.519592    -5.057360    21.093653    46.250874    -18.866402    1.015226    -14.371163    -9.790071    0.000000    0.000000    0.000000    
